<svg width="22" height="24" viewBox="0 0 22 24" fill="none" xmlns="http://www.w3.org/2000/svg">
<g clip-path="url(#clip0_240_1343)" filter="url(#filter0_di_240_1343)">
<path d="M11.0001 2.84224L6.46263 7.37974C5.5653 8.27716 4.95424 9.4205 4.70671 10.6652C4.45917 11.9099 4.58628 13.2 5.07196 14.3725C5.55764 15.5449 6.38008 16.547 7.43528 17.2521C8.49049 17.9571 9.73106 18.3334 11.0001 18.3334C12.2692 18.3334 13.5098 17.9571 14.565 17.2521C15.6202 16.547 16.4426 15.5449 16.9283 14.3725C17.414 13.2 17.5411 11.9099 17.2935 10.6652C17.046 9.4205 16.4349 8.27716 15.5376 7.37974L11.0001 2.84224ZM11.0001 0.249908L16.8338 6.08358C17.9876 7.23736 18.7733 8.70737 19.0916 10.3077C19.4099 11.9081 19.2465 13.5668 18.6221 15.0743C17.9977 16.5818 16.9403 17.8703 15.5836 18.7768C14.2269 19.6833 12.6318 20.1672 11.0001 20.1672C9.36843 20.1672 7.77338 19.6833 6.41668 18.7768C5.05998 17.8703 4.00256 16.5818 3.37813 15.0743C2.7537 13.5668 2.59032 11.9081 2.90864 10.3077C3.22696 8.70737 4.01269 7.23736 5.16646 6.08358L11.0001 0.249908V0.249908Z" fill="white"/>
</g>
<defs>
<filter id="filter0_di_240_1343" x="-2.26241" y="0" width="24.2624" height="25.0165" filterUnits="userSpaceOnUse" color-interpolation-filters="sRGB">
<feFlood flood-opacity="0" result="BackgroundImageFix"/>
<feColorMatrix in="SourceAlpha" type="matrix" values="0 0 0 0 0 0 0 0 0 0 0 0 0 0 0 0 0 0 127 0" result="hardAlpha"/>
<feOffset dx="-1.50827" dy="2.26241"/>
<feGaussianBlur stdDeviation="0.377069"/>
<feColorMatrix type="matrix" values="0 0 0 0 0 0 0 0 0 0 0 0 0 0 0 0 0 0 0.1 0"/>
<feBlend mode="normal" in2="BackgroundImageFix" result="effect1_dropShadow_240_1343"/>
<feBlend mode="normal" in="SourceGraphic" in2="effect1_dropShadow_240_1343" result="shape"/>
<feColorMatrix in="SourceAlpha" type="matrix" values="0 0 0 0 0 0 0 0 0 0 0 0 0 0 0 0 0 0 127 0" result="hardAlpha"/>
<feOffset dx="-0.754137" dy="0.754137"/>
<feGaussianBlur stdDeviation="0.754137"/>
<feComposite in2="hardAlpha" operator="arithmetic" k2="-1" k3="1"/>
<feColorMatrix type="matrix" values="0 0 0 0 1 0 0 0 0 1 0 0 0 0 1 0 0 0 0.25 0"/>
<feBlend mode="normal" in2="shape" result="effect2_innerShadow_240_1343"/>
</filter>
<clipPath id="clip0_240_1343">
<rect width="22" height="22" fill="white"/>
</clipPath>
</defs>
</svg>
