<svg width="23" height="24" viewBox="0 0 23 24" fill="none" xmlns="http://www.w3.org/2000/svg">
<g filter="url(#filter0_d_345_4248)">
<path d="M5.71674 0C5.34704 9.99392e-05 5.01425 0.224191 4.87513 0.566719C4.73602 0.909246 4.8183 1.30192 5.08325 1.55978C5.08325 1.55978 5.15641 1.59805 5.33701 2.04953C5.5176 2.50101 5.72561 3.28971 5.72561 4.55157C5.72561 5.71248 5.36717 6.41655 4.9129 7.32509C4.45863 8.23363 3.90854 9.34662 3.90854 10.9113C3.90854 12.3751 4.20096 13.0733 4.40894 13.6973C4.58327 14.2203 4.74571 14.879 4.79578 16.3626H3L5.72561 19.9967L8.45123 16.3626H6.60753C6.54814 14.6775 6.34342 13.7514 6.13375 13.1223C5.88746 12.3835 5.72561 12.1732 5.72561 10.9113C5.72561 9.75042 6.08406 9.04635 6.53833 8.13781C6.9926 7.22927 7.54269 6.11628 7.54269 4.55157C7.54269 3.08781 7.29644 2.05942 7.02276 1.37524C6.74908 0.691043 6.36798 0.275051 6.36798 0.275051C6.19693 0.0992215 5.96204 9.08538e-06 5.71674 0ZM12.985 0C12.6153 9.99392e-05 12.2826 0.224191 12.1434 0.566719C12.0043 0.909246 12.0866 1.30192 12.3516 1.55978C12.3516 1.55978 12.4247 1.59805 12.6053 2.04953C12.7859 2.50101 12.9939 3.28971 12.9939 4.55157C12.9939 5.71248 12.6355 6.41655 12.1812 7.32509C11.7269 8.23363 11.1768 9.34662 11.1768 10.9113C11.1768 12.3751 11.4693 13.0733 11.6772 13.6973C11.8516 14.2203 12.014 14.879 12.0641 16.3626H10.2683L12.9939 19.9967L15.7195 16.3626H13.8758C13.8164 14.6775 13.6117 13.7514 13.4021 13.1223C13.1558 12.3835 12.9939 12.1732 12.9939 10.9113C12.9939 9.75042 13.3524 9.04635 13.8066 8.13781C14.2609 7.22927 14.811 6.11628 14.811 4.55157C14.811 3.08781 14.5647 2.05942 14.2911 1.37524C14.0174 0.691043 13.6363 0.275051 13.6363 0.275051C13.4652 0.0992215 13.2303 9.08538e-06 12.985 0ZM18.4451 0.00887634C18.1175 0.0042428 17.8127 0.176393 17.6476 0.459393C17.4824 0.742403 17.4824 1.09243 17.6476 1.37543C17.8127 1.65844 18.1175 1.83058 18.4451 1.82594H21.1708V3.64302H20.2622C19.9346 3.63839 19.6298 3.81054 19.4646 4.09354C19.2994 4.37655 19.2994 4.72657 19.4646 5.00957C19.6298 5.29258 19.9346 5.46472 20.2622 5.46009H21.1708V7.27716H20.2622C19.9346 7.27253 19.6298 7.44468 19.4646 7.72768C19.2994 8.01069 19.2994 8.36071 19.4646 8.64371C19.6298 8.92672 19.9346 9.09886 20.2622 9.09423H21.1708V10.9113H20.2622C19.9346 10.9067 19.6298 11.0788 19.4646 11.3618C19.2994 11.6448 19.2994 11.9949 19.4646 12.2779C19.6298 12.5609 19.9346 12.733 20.2622 12.7284H21.1708V14.5454H20.2622C19.9346 14.5408 19.6298 14.713 19.4646 14.996C19.2994 15.279 19.2994 15.629 19.4646 15.912C19.6298 16.195 19.9346 16.3671 20.2622 16.3625H21.1708V18.1796H18.4451C18.1175 18.175 17.8127 18.3471 17.6476 18.6301C17.4824 18.9131 17.4824 19.2631 17.6476 19.5461C17.8127 19.8292 18.1175 20.0013 18.4451 19.9967H21.1708C22.1638 19.9967 22.9878 19.1727 22.9878 18.1796V15.6066C23.0041 15.5085 23.0041 15.4083 22.9878 15.3102V11.9724C23.0041 11.8743 23.0041 11.7742 22.9878 11.6761V8.33827C23.0041 8.24016 23.0041 8.14005 22.9878 8.04193V4.70412C23.0041 4.60601 23.0041 4.50589 22.9878 4.40778V1.8259C22.9878 0.832811 22.1638 0.00882175 21.1708 0.00882175L18.4451 0.00887634Z" fill="white"/>
</g>
<defs>
<filter id="filter0_d_345_4248" x="0.75" y="0" width="22.25" height="23.0067" filterUnits="userSpaceOnUse" color-interpolation-filters="sRGB">
<feFlood flood-opacity="0" result="BackgroundImageFix"/>
<feColorMatrix in="SourceAlpha" type="matrix" values="0 0 0 0 0 0 0 0 0 0 0 0 0 0 0 0 0 0 127 0" result="hardAlpha"/>
<feOffset dx="-1.5" dy="2.26"/>
<feGaussianBlur stdDeviation="0.375"/>
<feComposite in2="hardAlpha" operator="out"/>
<feColorMatrix type="matrix" values="0 0 0 0 0 0 0 0 0 0 0 0 0 0 0 0 0 0 0.1 0"/>
<feBlend mode="normal" in2="BackgroundImageFix" result="effect1_dropShadow_345_4248"/>
<feBlend mode="normal" in="SourceGraphic" in2="effect1_dropShadow_345_4248" result="shape"/>
</filter>
</defs>
</svg>
