<svg width="26" height="23" viewBox="0 0 26 23" fill="none" xmlns="http://www.w3.org/2000/svg">
<g filter="url(#filter0_d_240_1349)">
<path fill-rule="evenodd" clip-rule="evenodd" d="M20.5 4.00001C19.9317 4.00001 20.7801 4.00001 20 4.00001C19 2 17 0 13.5 0C10 0 7.56176 2.12215 7 5.50001C4.78249 5.50001 3 7.74206 3 10C3.5 12.5 4 13.5 6.52173 14H20.6495C23.324 14 25.5 11.7835 25.5 9.05945C25.5 6.3354 23.1744 4.00001 20.5 4.00001ZM24.0998 8.86379C24.0998 10.869 22.4815 12.5 20.4916 12.5H7.33634C5.77226 12.5 4.4998 11.2181 4.4998 9.64235C4.4998 8.06616 5.77226 6.78392 7.33634 6.78392C7.44072 6.78392 7.55466 6.79226 7.69489 6.80934L8.15662 6.86733L8.20284 6.40337C8.48808 3.57156 10.8362 1.43607 13.6648 1.43607C15.979 1.43607 18.0558 2.91494 18.8331 5.11636L18.9801 5.53186L19.3988 5.398C19.7542 5.28519 20.1219 5.22798 20.4916 5.22798C22.4815 5.22798 24.0998 6.85899 24.0998 8.86379Z" fill="white"/>
<path fill-rule="evenodd" clip-rule="evenodd" d="M7.12321 16.0214C7.69565 17.0637 8.26809 18.1053 8.84112 19.1476C9.23944 19.8729 10.3521 19.2254 9.9532 18.4995C9.38076 17.4573 8.80833 16.415 8.23529 15.3728C7.83697 14.6474 6.7243 15.2949 7.12321 16.0214" fill="white"/>
<path fill-rule="evenodd" clip-rule="evenodd" d="M11.3854 16.0214C11.9578 17.0635 12.5302 18.1051 13.1026 19.1473C13.5015 19.8726 14.6141 19.2252 14.2152 18.4993C13.6428 17.4571 13.0704 16.4149 12.4974 15.3728C12.0991 14.6475 10.9859 15.2949 11.3854 16.0214" fill="white"/>
<path fill-rule="evenodd" clip-rule="evenodd" d="M15.8647 16.0213C16.4376 17.0633 17.01 18.1048 17.5823 19.1468C17.9805 19.8721 19.0936 19.2247 18.6948 18.4989C18.1224 17.4568 17.5495 16.4148 16.9772 15.3727C16.5789 14.6475 15.4658 15.2949 15.8647 16.0213" fill="white"/>
<path fill-rule="evenodd" clip-rule="evenodd" d="M20.1934 16.0213C20.7658 17.0633 21.3387 18.1047 21.911 19.1468C22.3093 19.872 23.4223 19.2247 23.0235 18.4989C22.4506 17.4568 21.8782 16.4148 21.3059 15.3727C20.9071 14.6475 19.7946 15.2949 20.1934 16.0213" fill="white"/>
</g>
<defs>
<filter id="filter0_d_240_1349" x="0.74" y="0" width="24.76" height="22.4749" filterUnits="userSpaceOnUse" color-interpolation-filters="sRGB">
<feFlood flood-opacity="0" result="BackgroundImageFix"/>
<feColorMatrix in="SourceAlpha" type="matrix" values="0 0 0 0 0 0 0 0 0 0 0 0 0 0 0 0 0 0 127 0" result="hardAlpha"/>
<feOffset dx="-1.51" dy="2.26"/>
<feGaussianBlur stdDeviation="0.375"/>
<feColorMatrix type="matrix" values="0 0 0 0 0 0 0 0 0 0 0 0 0 0 0 0 0 0 0.1 0"/>
<feBlend mode="normal" in2="BackgroundImageFix" result="effect1_dropShadow_240_1349"/>
<feBlend mode="normal" in="SourceGraphic" in2="effect1_dropShadow_240_1349" result="shape"/>
</filter>
</defs>
</svg>
